<mxfile host="65bd71144e">
    <diagram id="nvPckq6HUNszwgOeDVwx" name="Page-1">
        <mxGraphModel dx="8097" dy="3813" grid="1" gridSize="10" guides="1" tooltips="1" connect="1" arrows="1" fold="1" page="1" pageScale="1" pageWidth="850" pageHeight="1100" math="0" shadow="0">
            <root>
                <mxCell id="0"/>
                <mxCell id="1" parent="0"/>
                <mxCell id="334" style="edgeStyle=none;html=1;exitX=0.5;exitY=1;exitDx=0;exitDy=0;fontSize=40;" parent="1" source="315" edge="1">
                    <mxGeometry relative="1" as="geometry">
                        <mxPoint x="1300" y="1220" as="targetPoint"/>
                    </mxGeometry>
                </mxCell>
                <mxCell id="315" value="&lt;span style=&quot;font-size: 50px;&quot;&gt;id&amp;nbsp; &amp;nbsp;object_id&lt;br&gt;&lt;br&gt;user_id&amp;nbsp; &amp;nbsp;object_id&lt;br&gt;&lt;br&gt;title&amp;nbsp; &amp;nbsp;string&lt;br&gt;&lt;br&gt;overview&amp;nbsp; &amp;nbsp;string&lt;br&gt;&lt;br&gt;reviews&amp;nbsp; &amp;nbsp;string&lt;br&gt;&lt;br&gt;genres&amp;nbsp; &amp;nbsp;string&lt;br&gt;&lt;br&gt;origin_country&amp;nbsp; &amp;nbsp;string&lt;br&gt;&lt;br&gt;original_title&amp;nbsp; &amp;nbsp;string&lt;br&gt;&lt;br&gt;original_language&amp;nbsp; &amp;nbsp;string&lt;br&gt;&lt;br&gt;popularity&amp;nbsp; &amp;nbsp;number&lt;br&gt;&lt;br&gt;poster_path&amp;nbsp; &amp;nbsp;string&lt;br&gt;&lt;br&gt;productions_companies&amp;nbsp; &amp;nbsp;string&lt;br&gt;&lt;br&gt;productions_countries&amp;nbsp; &amp;nbsp;string&lt;br&gt;&lt;br&gt;release_date&amp;nbsp; &amp;nbsp;date&lt;br&gt;&lt;br&gt;spoken_languages&amp;nbsp; &amp;nbsp;string&lt;br&gt;&lt;br&gt;vote_average&amp;nbsp; &amp;nbsp;number&lt;br&gt;&lt;br&gt;vote_count&amp;nbsp; &amp;nbsp;number&lt;br&gt;&lt;br&gt;&lt;/span&gt;" style="rounded=0;whiteSpace=wrap;html=1;strokeWidth=4;" parent="1" vertex="1">
                    <mxGeometry x="800" y="450" width="790" height="2110" as="geometry"/>
                </mxCell>
                <mxCell id="318" value="MOVIES" style="rounded=0;whiteSpace=wrap;html=1;strokeWidth=2;fontSize=50;fillColor=#6d8764;strokeColor=#3A5431;fontColor=#ffffff;" parent="1" vertex="1">
                    <mxGeometry x="800" y="230" width="800" height="185" as="geometry"/>
                </mxCell>
                <mxCell id="327" value="&lt;font style=&quot;font-size: 50px;&quot;&gt;id&amp;nbsp; &amp;nbsp;object_id&lt;br&gt;&amp;nbsp; &amp;nbsp; &amp;nbsp; &amp;nbsp; &amp;nbsp; &amp;nbsp; &amp;nbsp; &amp;nbsp;&amp;nbsp;&lt;br&gt;username&amp;nbsp; &amp;nbsp;string&amp;nbsp;&amp;nbsp;&lt;br&gt;&amp;nbsp; &amp;nbsp;&amp;nbsp;&lt;br&gt;email&amp;nbsp; &amp;nbsp;string&lt;br&gt;&amp;nbsp;&lt;br&gt;password&amp;nbsp; &amp;nbsp;string&lt;br&gt;&amp;nbsp;&lt;br&gt;created_at&amp;nbsp; &amp;nbsp;date&amp;nbsp;&lt;br&gt;&lt;br&gt;updated_at&amp;nbsp; &amp;nbsp;date&lt;br&gt;&lt;br&gt;isAdmin&amp;nbsp; &amp;nbsp;bool&amp;nbsp;&lt;br&gt;&lt;br&gt;favorite&amp;nbsp; &amp;nbsp;array&amp;nbsp;&lt;br&gt;&lt;/font&gt;" style="rounded=0;whiteSpace=wrap;html=1;strokeWidth=4;" parent="1" vertex="1">
                    <mxGeometry x="-720" y="450" width="790" height="1150" as="geometry"/>
                </mxCell>
                <mxCell id="330" value="&lt;span style=&quot;font-size: 50px;&quot;&gt;USER&lt;/span&gt;" style="rounded=0;whiteSpace=wrap;html=1;strokeWidth=2;fillColor=#6d8764;strokeColor=#3A5431;fontColor=#ffffff;" parent="1" vertex="1">
                    <mxGeometry x="-720" y="230" width="800" height="185" as="geometry"/>
                </mxCell>
                <mxCell id="335" style="edgeStyle=none;html=1;exitX=1;exitY=0.5;exitDx=0;exitDy=0;fontSize=40;" parent="1" source="318" target="318" edge="1">
                    <mxGeometry relative="1" as="geometry"/>
                </mxCell>
                <mxCell id="338" value="" style="curved=1;endArrow=classic;html=1;fontSize=50;strokeWidth=12;fillColor=#e3c800;strokeColor=#B09500;" parent="1" edge="1">
                    <mxGeometry width="50" height="50" relative="1" as="geometry">
                        <mxPoint x="140" y="360" as="sourcePoint"/>
                        <mxPoint x="740" y="310" as="targetPoint"/>
                        <Array as="points">
                            <mxPoint x="190" y="360"/>
                            <mxPoint x="140" y="310"/>
                        </Array>
                    </mxGeometry>
                </mxCell>
                <mxCell id="341" value="DATABASE SCHEMA" style="text;strokeColor=none;fillColor=none;html=1;fontSize=50;fontStyle=1;verticalAlign=middle;align=center;strokeWidth=43;" parent="1" vertex="1">
                    <mxGeometry x="150" y="730" width="570" height="640" as="geometry"/>
                </mxCell>
            </root>
        </mxGraphModel>
    </diagram>
</mxfile>